<?xml version="1.0" standalone="no"?>
<!DOCTYPE svg PUBLIC "-//W3C//DTD SVG 20010904//EN"
 "http://www.w3.org/TR/2001/REC-SVG-20010904/DTD/svg10.dtd">
<svg version="1.0" xmlns="http://www.w3.org/2000/svg"
 width="200.000000pt" height="200.000000pt" viewBox="0 0 200.000000 200.000000"
 preserveAspectRatio="xMidYMid meet">
<metadata>
Created by potrace 1.14, written by Peter Selinger 2001-2017
</metadata>
<g transform="translate(0.000000,200.000000) scale(0.100000,-0.100000)"
fill="#000000" stroke="none">
<path d="M405 1270 c-54 -12 -112 -49 -153 -97 -115 -134 -64 -352 99 -422
159 -69 335 16 380 183 37 139 -62 272 -201 270 -114 -2 -201 -87 -202 -198
-2 -133 148 -192 240 -93 46 49 38 142 -14 166 -59 27 -116 2 -133 -57 -8 -27
-7 -36 10 -53 23 -23 28 -23 57 -3 29 20 28 34 -4 34 -25 0 -26 1 -12 22 34
51 85 19 79 -50 -2 -25 -53 -62 -86 -62 -97 0 -126 131 -42 194 149 112 302
-89 173 -227 -95 -102 -262 -65 -306 69 -24 73 8 181 72 241 35 33 114 63 166
64 41 0 44 2 22 10 -31 13 -107 17 -145 9z"/>
<path d="M1040 1006 c0 -69 4 -127 9 -130 17 -11 29 20 27 73 -2 47 0 54 21
64 34 15 45 -1 44 -71 0 -43 4 -62 14 -66 21 -8 25 6 24 76 -2 87 -11 102 -60
95 -42 -5 -41 -6 -42 56 0 19 -5 27 -19 27 -16 0 -18 -11 -18 -124z"/>
<path d="M879 1114 c-24 -7 -42 -49 -35 -79 5 -20 20 -32 56 -48 27 -12 53
-31 56 -41 13 -38 -45 -53 -97 -25 -12 6 -20 5 -25 -2 -12 -20 24 -42 72 -44
38 -2 52 2 71 21 44 45 28 81 -54 123 -29 14 -43 28 -43 41 0 25 42 37 76 21
20 -9 26 -8 31 4 3 9 3 18 0 22 -8 7 -88 13 -108 7z"/>
<path d="M1227 1106 c-7 -18 1 -26 25 -26 13 0 18 6 16 17 -4 22 -34 29 -41 9z"/>
<path d="M1342 1047 c-42 -19 -30 -75 21 -98 48 -21 42 -45 -10 -41 -44 2 -57
-11 -25 -26 16 -8 27 -8 74 -4 23 3 41 38 33 63 -4 12 -22 27 -40 35 -19 7
-37 19 -41 25 -10 17 16 29 48 22 21 -4 28 -2 28 11 0 9 -6 16 -12 17 -7 0
-22 2 -34 3 -11 1 -30 -2 -42 -7z"/>
<path d="M1210 1042 c0 -5 6 -15 14 -21 9 -7 13 -32 11 -76 -1 -46 2 -66 12
-69 20 -8 24 12 21 95 -3 72 -4 74 -30 77 -16 2 -28 -1 -28 -6z"/>
<path d="M1476 973 c4 -84 17 -106 57 -96 12 3 36 6 54 5 l31 0 -3 76 c-4 98
-2 92 -20 92 -16 0 -17 -8 -17 -77 1 -45 -15 -67 -45 -61 -14 3 -18 14 -19 48
-1 25 -2 55 -3 68 -1 14 -7 22 -20 22 -17 0 -18 -7 -15 -77z"/>
<path d="M1670 960 c0 -83 1 -90 17 -81 13 7 18 24 19 66 1 58 13 78 44 72 11
-1 16 -20 20 -70 3 -37 8 -67 13 -67 4 0 11 0 16 0 12 0 11 129 -1 153 -10 19
-49 23 -79 7 -13 -7 -19 -7 -19 0 0 5 -7 10 -15 10 -12 0 -15 -17 -15 -90z"/>
</g>
</svg>
